<svg viewBox="0 0 100 100" xmlns="http://www.w3.org/2000/svg">
  <defs>
    <!-- Gradient for modern glass effect -->
    <linearGradient id="bulbGradient" x1="0%" y1="0%" x2="100%" y2="100%">
      <stop offset="0%" style="stop-color:#FBBF24;stop-opacity:1" />
      <stop offset="100%" style="stop-color:#F59E0B;stop-opacity:1" />
    </linearGradient>
    
    <!-- Background gradient -->
    <linearGradient id="bgGradient" x1="0%" y1="0%" x2="100%" y2="100%">
      <stop offset="0%" style="stop-color:#667EEA;stop-opacity:1" />
      <stop offset="100%" style="stop-color:#764BA2;stop-opacity:1" />
    </linearGradient>
    
    <!-- Glow effect -->
    <filter id="glow">
      <feGaussianBlur stdDeviation="3" result="coloredBlur"/>
      <feMerge> 
        <feMergeNode in="coloredBlur"/>
        <feMergeNode in="SourceGraphic"/>
      </feMerge>
    </filter>
  </defs>
  
  <!-- Background circle with gradient -->
  <circle cx="50" cy="50" r="45" fill="url(#bgGradient)"/>
  
  <!-- Light bulb body - modern rounded shape -->
  <path d="M37 36 C37 26, 43 20, 50 20 C57 20, 63 26, 63 36 C63 43, 61 47, 59 50 L59 54 L41 54 L41 50 C39 47, 37 43, 37 36 Z" 
        fill="url(#bulbGradient)" filter="url(#glow)"/>
  
  <!-- Modern base - simplified -->
  <rect x="43" y="54" width="14" height="8" fill="#374151" rx="3"/>
  <rect x="45" y="62" width="10" height="6" fill="#1F2937" rx="3"/>
  
  <!-- Modern minimal light rays -->
  <g stroke="#FCD34D" stroke-width="2.5" stroke-linecap="round" opacity="0.9">
    <line x1="50" y1="10" x2="50" y2="15"/>
    <line x1="71" y1="29" x2="66" y2="32"/>
    <line x1="71" y1="43" x2="66" y2="40"/>
    <line x1="34" y1="32" x2="29" y2="29"/>
    <line x1="34" y1="40" x2="29" y2="43"/>
  </g>
  
  <!-- Modern highlight on bulb -->
  <ellipse cx="46" cy="30" rx="3" ry="6" fill="#FFFFFF" opacity="0.4"/>
</svg>