<svg width="512" height="512" viewBox="0 0 512 512" xmlns="http://www.w3.org/2000/svg">
  <defs>
    <!-- Purple gradient -->
    <linearGradient id="purpleGradient" x1="0%" y1="0%" x2="100%" y2="100%">
      <stop offset="0%" style="stop-color:#8e2de2;stop-opacity:1" />
      <stop offset="100%" style="stop-color:#4a00e0;stop-opacity:1" />
    </linearGradient>
    
    <!-- Highlight gradient for glass effect -->
    <linearGradient id="highlight" x1="0%" y1="0%" x2="100%" y2="50%">
      <stop offset="0%" style="stop-color:rgba(255,255,255,0.1);stop-opacity:1" />
      <stop offset="50%" style="stop-color:rgba(255,255,255,0);stop-opacity:0" />
    </linearGradient>
    
    <!-- Drop shadow filter -->
    <filter id="dropShadow" x="-50%" y="-50%" width="200%" height="200%">
      <feDropShadow dx="0" dy="4" stdDeviation="8" flood-color="rgba(0,0,0,0.2)"/>
    </filter>
  </defs>
  
  <!-- Rounded rectangle background with gradient -->
  <rect x="0" y="0" width="512" height="512" rx="115" ry="115" fill="url(#purpleGradient)"/>
  
  <!-- Highlight overlay -->
  <rect x="0" y="0" width="512" height="512" rx="115" ry="115" fill="url(#highlight)"/>
  
  <!-- Light bulb group -->
  <g transform="translate(256, 256)" filter="url(#dropShadow)">
    <!-- Light bulb outline -->
    <ellipse cx="0" cy="-55" rx="45" ry="65" fill="none" stroke="white" stroke-width="8" stroke-linecap="round" stroke-linejoin="round"/>
    
    <!-- Filament lines -->
    <path d="M-25 -70 Q0 -55 25 -70" fill="none" stroke="white" stroke-width="3" stroke-linecap="round" opacity="0.8"/>
    <path d="M-25 -45 Q0 -30 25 -45" fill="none" stroke="white" stroke-width="3" stroke-linecap="round" opacity="0.8"/>
    
    <!-- Base threads -->
    <rect x="-25" y="10" width="50" height="8" rx="2" fill="white"/>
    <rect x="-25" y="22" width="50" height="8" rx="2" fill="white"/>
    <rect x="-25" y="34" width="50" height="8" rx="2" fill="white"/>
    
    <!-- Base cap -->
    <rect x="-30" y="46" width="60" height="20" rx="5" fill="white"/>
    
    <!-- Shine effect -->
    <ellipse cx="-15" cy="-75" rx="8" ry="15" fill="rgba(255,255,255,0.4)"/>
  </g>
</svg>